<svg width="46" height="42" viewBox="0 0 46 42" fill="none" xmlns="http://www.w3.org/2000/svg">
<path d="M6.33329 12.6667H39.6666V29.75C39.6666 33.2503 39.6666 35.0005 38.9854 36.3374C38.3862 37.5135 37.4301 38.4696 36.2541 39.0688C34.9171 39.75 33.167 39.75 29.6666 39.75H16.3333C12.833 39.75 11.0828 39.75 9.74585 39.0688C8.56984 38.4696 7.61371 37.5135 7.0145 36.3374C6.33329 35.0005 6.33329 33.2503 6.33329 29.75V12.6667Z" fill="#E0F2FE"/>
<path d="M6.33329 12.6596C5.99161 12.6508 5.74349 12.631 5.52042 12.5866C3.86754 12.2578 2.57547 10.9658 2.24669 9.31288C2.16663 8.91038 2.16663 8.42636 2.16663 7.45833C2.16663 6.4903 2.16663 6.00629 2.24669 5.60379C2.57547 3.95091 3.86754 2.65884 5.52042 2.33006C5.92291 2.25 6.40693 2.25 7.37496 2.25H38.625C39.593 2.25 40.077 2.25 40.4795 2.33006C42.1324 2.65884 43.4245 3.95091 43.7532 5.60379C43.8333 6.00629 43.8333 6.4903 43.8333 7.45833C43.8333 8.42636 43.8333 8.91038 43.7532 9.31288C43.4245 10.9658 42.1324 12.2578 40.4795 12.5866C40.2564 12.631 40.0083 12.6508 39.6666 12.6596M18.8333 23.0833H27.1666M6.33329 12.6667H39.6666V29.75C39.6666 33.2503 39.6666 35.0005 38.9854 36.3374C38.3862 37.5135 37.4301 38.4696 36.2541 39.0688C34.9171 39.75 33.167 39.75 29.6666 39.75H16.3333C12.833 39.75 11.0828 39.75 9.74585 39.0688C8.56984 38.4696 7.61371 37.5135 7.0145 36.3374C6.33329 35.0005 6.33329 33.2503 6.33329 29.75V12.6667Z" stroke="#1D2939" stroke-width="2.66667" stroke-linecap="round" stroke-linejoin="round"/>
</svg>
