<svg width="12" height="10" viewBox="0 0 12 10" fill="none" xmlns="http://www.w3.org/2000/svg">
<path d="M11.5 0.500145C11.0212 0.837884 10.4911 1.0962 9.93 1.26515C9.62887 0.9189 9.22867 0.673491 8.78352 0.562108C8.33837 0.450725 7.86975 0.478743 7.44104 0.642372C7.01233 0.806001 6.64422 1.09735 6.38649 1.477C6.12876 1.85666 5.99385 2.30631 6 2.76515V3.26514C5.12132 3.28793 4.25064 3.09305 3.4655 2.69787C2.68037 2.30268 2.00516 1.71946 1.5 1.00015C1.5 1.00015 -0.5 5.50014 4 7.50014C2.97026 8.19913 1.74358 8.54961 0.5 8.50014C5 11.0001 10.5 8.50014 10.5 2.75014C10.4995 2.61087 10.4861 2.47194 10.46 2.33515C10.9703 1.83189 11.3304 1.1965 11.5 0.500145Z" stroke="white" stroke-linecap="round" stroke-linejoin="round"/>
</svg>
