<svg width="27" height="28" viewBox="0 0 27 28" fill="none" xmlns="http://www.w3.org/2000/svg">
<path d="M13.5 27.5C20.9558 27.5 27 21.4558 27 14C27 6.54416 20.9558 0.5 13.5 0.5C6.04416 0.5 0 6.54416 0 14C0 21.4558 6.04416 27.5 13.5 27.5Z" fill="url(#paint0_linear_55_51364)"/>
<path fill-rule="evenodd" clip-rule="evenodd" d="M14.3437 11.5303L11.3624 6.47502C11.0249 6.01544 10.4062 6.07289 10.1249 6.53246L1.79993 20.1474C1.51868 20.6069 1.63118 21.1814 2.19368 21.3537H8.54993L10.7437 17.7346L11.3062 16.1261L14.3437 11.5303ZM10.6874 8.65799L12.5999 11.7601L10.9687 14.2878L7.70618 19.8027H3.99368L10.6874 8.65799Z" fill="white"/>
<path fill-rule="evenodd" clip-rule="evenodd" d="M12.2062 20.3767L9.95625 16.3554C9.9 16.2405 9.9 16.0682 9.95625 15.8958L15.3562 6.47456C15.6937 6.01499 16.2562 6.01499 16.5937 6.47456L24.6375 20.1469C24.9187 20.6065 24.8062 21.1809 24.2437 21.3533H18.0562L15.9187 17.7341C15.8062 17.5044 15.6937 17.5044 15.5812 17.6767L14.0625 20.3767H12.2062ZM15.975 8.65754L11.6438 16.0107C11.6438 16.0682 11.6438 16.1831 11.6438 16.2405L13.1062 18.7107L15.75 14.2873L18.9 19.8022H22.5L15.975 8.65754Z" fill="white"/>
<defs>
<linearGradient id="paint0_linear_55_51364" x1="13.5" y1="-11.2655" x2="13.5" y2="27.5" gradientUnits="userSpaceOnUse">
<stop stop-color="#9B5FF8"/>
<stop offset="1" stop-color="#6231EF"/>
</linearGradient>
</defs>
</svg>
