<svg width="39" height="46" viewBox="0 0 39 46" fill="none" xmlns="http://www.w3.org/2000/svg">
<path d="M34.6667 24.0417V12.1667C34.6667 8.66636 34.6667 6.9162 33.9855 5.57925C33.3863 4.40323 32.4302 3.4471 31.2542 2.8479C29.9172 2.16669 28.167 2.16669 24.6667 2.16669H11.3334C7.83305 2.16669 6.08288 2.16669 4.74593 2.8479C3.56992 3.4471 2.61379 4.40323 2.01458 5.57925C1.33337 6.9162 1.33337 8.66636 1.33337 12.1667V33.8334C1.33337 37.3337 1.33337 39.0838 2.01458 40.4208C2.61379 41.5968 3.56992 42.5529 4.74593 43.1521C6.08288 43.8334 7.83295 43.8334 11.3331 43.8334H19.0417M22.1667 20.9167H9.66671M13.8334 29.25H9.66671M26.3334 12.5834H9.66671M24.25 37.5834L30.5 43.8334M30.5 43.8334L36.75 37.5834M30.5 43.8334V31.3334" stroke="#1D2939" stroke-width="2.66667" stroke-linecap="round" stroke-linejoin="round"/>
</svg>
