<svg width="17" height="18" viewBox="0 0 17 18" fill="none" xmlns="http://www.w3.org/2000/svg">
<path d="M2.66667 16.5H14.3333C15.2538 16.5 16 15.7538 16 14.8333V3.16667C16 2.24619 15.2538 1.5 14.3333 1.5H2.66667C1.74619 1.5 1 2.24619 1 3.16667V14.8333C1 15.7538 1.74619 16.5 2.66667 16.5ZM2.66667 16.5L11.8333 7.33333L16 11.5M6.83333 6.08333C6.83333 6.77369 6.27369 7.33333 5.58333 7.33333C4.89298 7.33333 4.33333 6.77369 4.33333 6.08333C4.33333 5.39298 4.89298 4.83333 5.58333 4.83333C6.27369 4.83333 6.83333 5.39298 6.83333 6.08333Z" stroke="#475467" stroke-width="1.66667" stroke-linecap="round" stroke-linejoin="round"/>
</svg>
