<svg width="949" height="200" viewBox="0 0 949 200" fill="none" xmlns="http://www.w3.org/2000/svg">
<line x1="1.5" y1="11" x2="947.5" y2="11" stroke="#F2F4F7" stroke-linecap="round"/>
<line x1="1.5" y1="45.5" x2="947.5" y2="45.5" stroke="#F2F4F7" stroke-linecap="round"/>
<line x1="1.5" y1="77.5" x2="947.5" y2="77.5" stroke="#F2F4F7" stroke-linecap="round"/>
<line x1="1.5" y1="109.5" x2="947.5" y2="109.5" stroke="#F2F4F7" stroke-linecap="round"/>
<line x1="1.5" y1="141.5" x2="947.5" y2="141.5" stroke="#F2F4F7" stroke-linecap="round"/>
<line x1="1.5" y1="173.5" x2="947.5" y2="173.5" stroke="#F2F4F7" stroke-linecap="round"/>
<path d="M25.7989 195.072C25.6469 195.08 25.5309 195.04 25.4509 194.952C25.3629 194.864 25.3189 194.756 25.3189 194.628C25.3189 194.532 25.3509 194.444 25.4149 194.364C25.4709 194.284 25.5629 194.24 25.6909 194.232L26.0629 194.208C26.4709 194.176 26.7829 194.036 26.9989 193.788C27.2149 193.532 27.3229 193.184 27.3229 192.744V186.96C27.3229 186.792 27.3629 186.668 27.4429 186.588C27.5309 186.5 27.6549 186.456 27.8149 186.456C27.9749 186.456 28.0949 186.5 28.1749 186.588C28.2629 186.668 28.3069 186.792 28.3069 186.96V192.756C28.3069 193.212 28.2269 193.608 28.0669 193.944C27.9069 194.272 27.6669 194.528 27.3469 194.712C27.0349 194.896 26.6509 195.004 26.1949 195.036L25.7989 195.072ZM32.1015 195.108C31.7015 195.108 31.3415 195.032 31.0215 194.88C30.7095 194.72 30.4615 194.504 30.2775 194.232C30.0935 193.96 30.0015 193.656 30.0015 193.32C30.0015 192.888 30.1095 192.548 30.3255 192.3C30.5495 192.052 30.9135 191.876 31.4175 191.772C31.9295 191.668 32.6255 191.616 33.5055 191.616H34.0455V192.252H33.5175C32.8695 192.252 32.3575 192.284 31.9815 192.348C31.6135 192.404 31.3535 192.504 31.2015 192.648C31.0575 192.792 30.9855 192.996 30.9855 193.26C30.9855 193.588 31.0975 193.856 31.3215 194.064C31.5535 194.272 31.8655 194.376 32.2575 194.376C32.5775 194.376 32.8575 194.3 33.0975 194.148C33.3455 193.996 33.5375 193.788 33.6735 193.524C33.8175 193.26 33.8895 192.956 33.8895 192.612V191.244C33.8895 190.748 33.7895 190.392 33.5895 190.176C33.3895 189.952 33.0615 189.84 32.6055 189.84C32.3255 189.84 32.0455 189.876 31.7655 189.948C31.4855 190.02 31.1895 190.136 30.8775 190.296C30.7655 190.352 30.6695 190.372 30.5895 190.356C30.5095 190.332 30.4455 190.288 30.3975 190.224C30.3495 190.16 30.3215 190.088 30.3135 190.008C30.3055 189.92 30.3215 189.836 30.3615 189.756C30.4095 189.676 30.4815 189.612 30.5775 189.564C30.9295 189.388 31.2775 189.26 31.6215 189.18C31.9655 189.1 32.2935 189.06 32.6055 189.06C33.1095 189.06 33.5255 189.144 33.8535 189.312C34.1815 189.472 34.4255 189.72 34.5855 190.056C34.7455 190.384 34.8255 190.808 34.8255 191.328V194.58C34.8255 194.74 34.7855 194.864 34.7055 194.952C34.6335 195.04 34.5255 195.084 34.3815 195.084C34.2295 195.084 34.1135 195.04 34.0335 194.952C33.9535 194.864 33.9135 194.74 33.9135 194.58V193.644H34.0215C33.9575 193.948 33.8335 194.208 33.6495 194.424C33.4735 194.64 33.2535 194.808 32.9895 194.928C32.7255 195.048 32.4295 195.108 32.1015 195.108ZM37.1088 195.084C36.9488 195.084 36.8288 195.04 36.7488 194.952C36.6688 194.864 36.6288 194.74 36.6288 194.58V189.576C36.6288 189.416 36.6688 189.296 36.7488 189.216C36.8288 189.128 36.9448 189.084 37.0968 189.084C37.2488 189.084 37.3648 189.128 37.4448 189.216C37.5328 189.296 37.5768 189.416 37.5768 189.576V190.608L37.4448 190.464C37.6128 190 37.8848 189.652 38.2608 189.42C38.6448 189.18 39.0848 189.06 39.5808 189.06C40.0448 189.06 40.4288 189.144 40.7328 189.312C41.0448 189.48 41.2768 189.736 41.4288 190.08C41.5808 190.416 41.6568 190.844 41.6568 191.364V194.58C41.6568 194.74 41.6128 194.864 41.5248 194.952C41.4448 195.04 41.3288 195.084 41.1768 195.084C41.0168 195.084 40.8928 195.04 40.8048 194.952C40.7248 194.864 40.6848 194.74 40.6848 194.58V191.424C40.6848 190.88 40.5768 190.484 40.3608 190.236C40.1528 189.98 39.8168 189.852 39.3528 189.852C38.8168 189.852 38.3888 190.02 38.0688 190.356C37.7568 190.684 37.6008 191.124 37.6008 191.676V194.58C37.6008 194.916 37.4368 195.084 37.1088 195.084Z" fill="#667085"/>
<path d="M104.432 195.084C104.264 195.084 104.132 195.04 104.036 194.952C103.948 194.856 103.904 194.72 103.904 194.544V187.08C103.904 186.904 103.948 186.772 104.036 186.684C104.132 186.588 104.268 186.54 104.444 186.54H108.8C108.936 186.54 109.04 186.576 109.112 186.648C109.184 186.72 109.22 186.82 109.22 186.948C109.22 187.084 109.184 187.188 109.112 187.26C109.04 187.332 108.936 187.368 108.8 187.368H104.888V190.32H108.548C108.684 190.32 108.788 190.356 108.86 190.428C108.94 190.5 108.98 190.6 108.98 190.728C108.98 190.864 108.94 190.968 108.86 191.04C108.788 191.112 108.684 191.148 108.548 191.148H104.888V194.544C104.888 194.904 104.736 195.084 104.432 195.084ZM112.752 195.108C112.136 195.108 111.604 194.988 111.156 194.748C110.716 194.5 110.372 194.152 110.124 193.704C109.884 193.256 109.764 192.72 109.764 192.096C109.764 191.488 109.884 190.96 110.124 190.512C110.364 190.056 110.692 189.7 111.108 189.444C111.532 189.188 112.02 189.06 112.572 189.06C112.964 189.06 113.316 189.128 113.628 189.264C113.94 189.392 114.204 189.58 114.42 189.828C114.644 190.076 114.812 190.376 114.924 190.728C115.044 191.08 115.104 191.476 115.104 191.916C115.104 192.044 115.068 192.14 114.996 192.204C114.924 192.26 114.82 192.288 114.684 192.288H110.508V191.652H114.456L114.264 191.808C114.264 191.376 114.2 191.012 114.072 190.716C113.944 190.412 113.756 190.18 113.508 190.02C113.268 189.86 112.964 189.78 112.596 189.78C112.188 189.78 111.84 189.876 111.552 190.068C111.272 190.252 111.06 190.512 110.916 190.848C110.772 191.176 110.7 191.56 110.7 192V192.072C110.7 192.808 110.876 193.368 111.228 193.752C111.588 194.136 112.096 194.328 112.752 194.328C113.024 194.328 113.292 194.292 113.556 194.22C113.828 194.148 114.092 194.028 114.348 193.86C114.46 193.788 114.56 193.756 114.648 193.764C114.744 193.764 114.82 193.792 114.876 193.848C114.932 193.896 114.968 193.96 114.984 194.04C115.008 194.112 115 194.192 114.96 194.28C114.928 194.368 114.86 194.444 114.756 194.508C114.492 194.7 114.18 194.848 113.82 194.952C113.46 195.056 113.104 195.108 112.752 195.108ZM119.462 195.108C118.934 195.108 118.478 194.972 118.094 194.7C117.718 194.428 117.466 194.064 117.338 193.608L117.47 193.476V194.58C117.47 194.74 117.426 194.864 117.338 194.952C117.258 195.04 117.142 195.084 116.99 195.084C116.83 195.084 116.71 195.04 116.63 194.952C116.55 194.864 116.51 194.74 116.51 194.58V186.948C116.51 186.788 116.55 186.668 116.63 186.588C116.71 186.5 116.83 186.456 116.99 186.456C117.142 186.456 117.262 186.5 117.35 186.588C117.438 186.668 117.482 186.788 117.482 186.948V190.524H117.338C117.474 190.076 117.73 189.72 118.106 189.456C118.482 189.192 118.934 189.06 119.462 189.06C119.99 189.06 120.446 189.184 120.83 189.432C121.214 189.672 121.51 190.02 121.718 190.476C121.934 190.924 122.042 191.46 122.042 192.084C122.042 192.7 121.934 193.236 121.718 193.692C121.51 194.14 121.21 194.488 120.818 194.736C120.434 194.984 119.982 195.108 119.462 195.108ZM119.258 194.328C119.626 194.328 119.942 194.24 120.206 194.064C120.478 193.888 120.686 193.632 120.83 193.296C120.982 192.96 121.058 192.556 121.058 192.084C121.058 191.356 120.894 190.8 120.566 190.416C120.246 190.032 119.81 189.84 119.258 189.84C118.898 189.84 118.582 189.928 118.31 190.104C118.038 190.272 117.826 190.524 117.674 190.86C117.53 191.188 117.458 191.596 117.458 192.084C117.458 192.804 117.622 193.36 117.95 193.752C118.278 194.136 118.714 194.328 119.258 194.328Z" fill="#667085"/>
<path d="M184.014 195.084C183.87 195.084 183.758 195.044 183.678 194.964C183.598 194.876 183.558 194.756 183.558 194.604V186.936C183.558 186.776 183.598 186.656 183.678 186.576C183.758 186.496 183.87 186.456 184.014 186.456C184.142 186.456 184.242 186.484 184.314 186.54C184.394 186.588 184.466 186.672 184.53 186.792L187.818 192.984H187.458L190.734 186.792C190.798 186.672 190.866 186.588 190.938 186.54C191.01 186.484 191.114 186.456 191.25 186.456C191.386 186.456 191.494 186.496 191.574 186.576C191.654 186.656 191.694 186.776 191.694 186.936V194.604C191.694 194.756 191.654 194.876 191.574 194.964C191.502 195.044 191.39 195.084 191.238 195.084C191.094 195.084 190.982 195.044 190.902 194.964C190.822 194.876 190.782 194.756 190.782 194.604V187.86H191.07L188.07 193.488C188.014 193.592 187.954 193.668 187.89 193.716C187.834 193.756 187.75 193.776 187.638 193.776C187.526 193.776 187.438 193.752 187.374 193.704C187.31 193.656 187.254 193.584 187.206 193.488L184.17 187.848H184.458V194.604C184.458 194.756 184.418 194.876 184.338 194.964C184.266 195.044 184.158 195.084 184.014 195.084ZM195.503 195.108C195.103 195.108 194.743 195.032 194.423 194.88C194.111 194.72 193.863 194.504 193.679 194.232C193.495 193.96 193.403 193.656 193.403 193.32C193.403 192.888 193.511 192.548 193.727 192.3C193.951 192.052 194.315 191.876 194.819 191.772C195.331 191.668 196.027 191.616 196.907 191.616H197.447V192.252H196.919C196.271 192.252 195.759 192.284 195.383 192.348C195.015 192.404 194.755 192.504 194.603 192.648C194.459 192.792 194.387 192.996 194.387 193.26C194.387 193.588 194.499 193.856 194.723 194.064C194.955 194.272 195.267 194.376 195.659 194.376C195.979 194.376 196.259 194.3 196.499 194.148C196.747 193.996 196.939 193.788 197.075 193.524C197.219 193.26 197.291 192.956 197.291 192.612V191.244C197.291 190.748 197.191 190.392 196.991 190.176C196.791 189.952 196.463 189.84 196.007 189.84C195.727 189.84 195.447 189.876 195.167 189.948C194.887 190.02 194.591 190.136 194.279 190.296C194.167 190.352 194.071 190.372 193.991 190.356C193.911 190.332 193.847 190.288 193.799 190.224C193.751 190.16 193.723 190.088 193.715 190.008C193.707 189.92 193.723 189.836 193.763 189.756C193.811 189.676 193.883 189.612 193.979 189.564C194.331 189.388 194.679 189.26 195.023 189.18C195.367 189.1 195.695 189.06 196.007 189.06C196.511 189.06 196.927 189.144 197.255 189.312C197.583 189.472 197.827 189.72 197.987 190.056C198.147 190.384 198.227 190.808 198.227 191.328V194.58C198.227 194.74 198.187 194.864 198.107 194.952C198.035 195.04 197.927 195.084 197.783 195.084C197.631 195.084 197.515 195.04 197.435 194.952C197.355 194.864 197.315 194.74 197.315 194.58V193.644H197.423C197.359 193.948 197.235 194.208 197.051 194.424C196.875 194.64 196.655 194.808 196.391 194.928C196.127 195.048 195.831 195.108 195.503 195.108ZM200.523 195.084C200.363 195.084 200.239 195.04 200.151 194.952C200.071 194.864 200.031 194.74 200.031 194.58V189.576C200.031 189.416 200.071 189.296 200.151 189.216C200.231 189.128 200.347 189.084 200.499 189.084C200.651 189.084 200.767 189.128 200.847 189.216C200.935 189.296 200.979 189.416 200.979 189.576V190.548H200.859C200.987 190.076 201.231 189.712 201.591 189.456C201.951 189.2 202.395 189.064 202.923 189.048C203.043 189.04 203.139 189.068 203.211 189.132C203.283 189.188 203.323 189.288 203.331 189.432C203.339 189.568 203.307 189.676 203.235 189.756C203.163 189.836 203.051 189.884 202.899 189.9L202.707 189.924C202.163 189.972 201.743 190.148 201.447 190.452C201.159 190.748 201.015 191.156 201.015 191.676V194.58C201.015 194.74 200.971 194.864 200.883 194.952C200.803 195.04 200.683 195.084 200.523 195.084Z" fill="#667085"/>
<path d="M264.526 195.084C264.398 195.084 264.294 195.056 264.214 195C264.142 194.936 264.098 194.856 264.082 194.76C264.074 194.656 264.098 194.54 264.154 194.412L267.454 186.9C267.526 186.74 267.61 186.628 267.706 186.564C267.81 186.492 267.922 186.456 268.042 186.456C268.162 186.456 268.27 186.492 268.366 186.564C268.47 186.628 268.554 186.74 268.618 186.9L271.93 194.412C271.994 194.54 272.018 194.656 272.002 194.76C271.994 194.864 271.954 194.944 271.882 195C271.81 195.056 271.71 195.084 271.582 195.084C271.438 195.084 271.322 195.048 271.234 194.976C271.146 194.896 271.074 194.784 271.018 194.64L270.13 192.588L270.61 192.84H265.45L265.942 192.588L265.066 194.64C264.994 194.792 264.918 194.904 264.838 194.976C264.758 195.048 264.654 195.084 264.526 195.084ZM268.03 187.692L266.098 192.24L265.81 192.012H270.25L269.986 192.24L268.054 187.692H268.03ZM273.796 197.244C273.636 197.244 273.516 197.2 273.436 197.112C273.356 197.032 273.316 196.912 273.316 196.752V189.576C273.316 189.416 273.356 189.296 273.436 189.216C273.516 189.128 273.632 189.084 273.784 189.084C273.944 189.084 274.064 189.128 274.144 189.216C274.232 189.296 274.276 189.416 274.276 189.576V190.716L274.144 190.548C274.272 190.092 274.524 189.732 274.9 189.468C275.284 189.196 275.74 189.06 276.268 189.06C276.788 189.06 277.24 189.184 277.624 189.432C278.016 189.672 278.316 190.02 278.524 190.476C278.74 190.924 278.848 191.46 278.848 192.084C278.848 192.7 278.74 193.236 278.524 193.692C278.316 194.14 278.02 194.488 277.636 194.736C277.252 194.984 276.796 195.108 276.268 195.108C275.74 195.108 275.288 194.976 274.912 194.712C274.536 194.44 274.28 194.08 274.144 193.632H274.288V196.752C274.288 196.912 274.244 197.032 274.156 197.112C274.068 197.2 273.948 197.244 273.796 197.244ZM276.064 194.328C276.432 194.328 276.748 194.24 277.012 194.064C277.284 193.888 277.492 193.632 277.636 193.296C277.788 192.96 277.864 192.556 277.864 192.084C277.864 191.356 277.7 190.8 277.372 190.416C277.052 190.032 276.616 189.84 276.064 189.84C275.704 189.84 275.388 189.928 275.116 190.104C274.844 190.272 274.632 190.524 274.48 190.86C274.336 191.188 274.264 191.596 274.264 192.084C274.264 192.804 274.428 193.36 274.756 193.752C275.084 194.136 275.52 194.328 276.064 194.328ZM280.805 195.084C280.645 195.084 280.521 195.04 280.433 194.952C280.353 194.864 280.313 194.74 280.313 194.58V189.576C280.313 189.416 280.353 189.296 280.433 189.216C280.513 189.128 280.629 189.084 280.781 189.084C280.933 189.084 281.049 189.128 281.129 189.216C281.217 189.296 281.261 189.416 281.261 189.576V190.548H281.141C281.269 190.076 281.513 189.712 281.873 189.456C282.233 189.2 282.677 189.064 283.205 189.048C283.325 189.04 283.421 189.068 283.493 189.132C283.565 189.188 283.605 189.288 283.613 189.432C283.621 189.568 283.589 189.676 283.517 189.756C283.445 189.836 283.333 189.884 283.181 189.9L282.989 189.924C282.445 189.972 282.025 190.148 281.729 190.452C281.441 190.748 281.297 191.156 281.297 191.676V194.58C281.297 194.74 281.253 194.864 281.165 194.952C281.085 195.04 280.965 195.084 280.805 195.084Z" fill="#667085"/>
<path d="M345.566 195.084C345.422 195.084 345.31 195.044 345.23 194.964C345.15 194.876 345.11 194.756 345.11 194.604V186.936C345.11 186.776 345.15 186.656 345.23 186.576C345.31 186.496 345.422 186.456 345.566 186.456C345.694 186.456 345.794 186.484 345.866 186.54C345.946 186.588 346.018 186.672 346.082 186.792L349.37 192.984H349.01L352.286 186.792C352.35 186.672 352.418 186.588 352.49 186.54C352.562 186.484 352.666 186.456 352.802 186.456C352.938 186.456 353.046 186.496 353.126 186.576C353.206 186.656 353.246 186.776 353.246 186.936V194.604C353.246 194.756 353.206 194.876 353.126 194.964C353.054 195.044 352.942 195.084 352.79 195.084C352.646 195.084 352.534 195.044 352.454 194.964C352.374 194.876 352.334 194.756 352.334 194.604V187.86H352.622L349.622 193.488C349.566 193.592 349.506 193.668 349.442 193.716C349.386 193.756 349.302 193.776 349.19 193.776C349.078 193.776 348.99 193.752 348.926 193.704C348.862 193.656 348.806 193.584 348.758 193.488L345.722 187.848H346.01V194.604C346.01 194.756 345.97 194.876 345.89 194.964C345.818 195.044 345.71 195.084 345.566 195.084ZM357.056 195.108C356.656 195.108 356.296 195.032 355.976 194.88C355.664 194.72 355.416 194.504 355.232 194.232C355.048 193.96 354.956 193.656 354.956 193.32C354.956 192.888 355.064 192.548 355.28 192.3C355.504 192.052 355.868 191.876 356.372 191.772C356.884 191.668 357.58 191.616 358.46 191.616H359V192.252H358.472C357.824 192.252 357.312 192.284 356.936 192.348C356.568 192.404 356.308 192.504 356.156 192.648C356.012 192.792 355.94 192.996 355.94 193.26C355.94 193.588 356.052 193.856 356.276 194.064C356.508 194.272 356.82 194.376 357.212 194.376C357.532 194.376 357.812 194.3 358.052 194.148C358.3 193.996 358.492 193.788 358.628 193.524C358.772 193.26 358.844 192.956 358.844 192.612V191.244C358.844 190.748 358.744 190.392 358.544 190.176C358.344 189.952 358.016 189.84 357.56 189.84C357.28 189.84 357 189.876 356.72 189.948C356.44 190.02 356.144 190.136 355.832 190.296C355.72 190.352 355.624 190.372 355.544 190.356C355.464 190.332 355.4 190.288 355.352 190.224C355.304 190.16 355.276 190.088 355.268 190.008C355.26 189.92 355.276 189.836 355.316 189.756C355.364 189.676 355.436 189.612 355.532 189.564C355.884 189.388 356.232 189.26 356.576 189.18C356.92 189.1 357.248 189.06 357.56 189.06C358.064 189.06 358.48 189.144 358.808 189.312C359.136 189.472 359.38 189.72 359.54 190.056C359.7 190.384 359.78 190.808 359.78 191.328V194.58C359.78 194.74 359.74 194.864 359.66 194.952C359.588 195.04 359.48 195.084 359.336 195.084C359.184 195.084 359.068 195.04 358.988 194.952C358.908 194.864 358.868 194.74 358.868 194.58V193.644H358.976C358.912 193.948 358.788 194.208 358.604 194.424C358.428 194.64 358.208 194.808 357.944 194.928C357.68 195.048 357.384 195.108 357.056 195.108ZM362.82 197.244C362.7 197.244 362.604 197.212 362.532 197.148C362.46 197.084 362.416 196.996 362.4 196.884C362.392 196.78 362.412 196.672 362.46 196.56L363.288 194.7V195.12L360.984 189.768C360.936 189.648 360.92 189.536 360.936 189.432C360.952 189.328 361 189.244 361.08 189.18C361.16 189.116 361.272 189.084 361.416 189.084C361.544 189.084 361.644 189.112 361.716 189.168C361.788 189.224 361.852 189.324 361.908 189.468L363.876 194.292H363.552L365.544 189.468C365.608 189.324 365.676 189.224 365.748 189.168C365.82 189.112 365.924 189.084 366.06 189.084C366.188 189.084 366.284 189.116 366.348 189.18C366.42 189.244 366.46 189.328 366.468 189.432C366.484 189.528 366.468 189.636 366.42 189.756L363.348 196.86C363.284 197.004 363.212 197.104 363.132 197.16C363.06 197.216 362.956 197.244 362.82 197.244Z" fill="#667085"/>
<path d="M427.254 195.072C427.102 195.08 426.986 195.04 426.906 194.952C426.818 194.864 426.774 194.756 426.774 194.628C426.774 194.532 426.806 194.444 426.87 194.364C426.926 194.284 427.018 194.24 427.146 194.232L427.518 194.208C427.926 194.176 428.238 194.036 428.454 193.788C428.67 193.532 428.778 193.184 428.778 192.744V186.96C428.778 186.792 428.818 186.668 428.898 186.588C428.986 186.5 429.11 186.456 429.27 186.456C429.43 186.456 429.55 186.5 429.63 186.588C429.718 186.668 429.762 186.792 429.762 186.96V192.756C429.762 193.212 429.682 193.608 429.522 193.944C429.362 194.272 429.122 194.528 428.802 194.712C428.49 194.896 428.106 195.004 427.65 195.036L427.254 195.072ZM433.784 195.108C433.312 195.108 432.92 195.024 432.608 194.856C432.304 194.68 432.072 194.42 431.912 194.076C431.76 193.732 431.684 193.304 431.684 192.792V189.576C431.684 189.408 431.724 189.284 431.804 189.204C431.892 189.124 432.012 189.084 432.164 189.084C432.324 189.084 432.444 189.124 432.524 189.204C432.612 189.284 432.656 189.408 432.656 189.576V192.78C432.656 193.292 432.76 193.676 432.968 193.932C433.184 194.18 433.52 194.304 433.976 194.304C434.472 194.304 434.876 194.136 435.188 193.8C435.5 193.464 435.656 193.024 435.656 192.48V189.576C435.656 189.408 435.696 189.284 435.776 189.204C435.864 189.124 435.988 189.084 436.148 189.084C436.3 189.084 436.416 189.124 436.496 189.204C436.584 189.284 436.628 189.408 436.628 189.576V194.58C436.628 194.916 436.472 195.084 436.16 195.084C436.008 195.084 435.888 195.04 435.8 194.952C435.72 194.864 435.68 194.74 435.68 194.58V193.488L435.836 193.656C435.676 194.128 435.412 194.488 435.044 194.736C434.684 194.984 434.264 195.108 433.784 195.108ZM438.927 195.084C438.767 195.084 438.647 195.04 438.567 194.952C438.487 194.864 438.447 194.74 438.447 194.58V189.576C438.447 189.416 438.487 189.296 438.567 189.216C438.647 189.128 438.763 189.084 438.915 189.084C439.067 189.084 439.183 189.128 439.263 189.216C439.351 189.296 439.395 189.416 439.395 189.576V190.608L439.263 190.464C439.431 190 439.703 189.652 440.079 189.42C440.463 189.18 440.903 189.06 441.399 189.06C441.863 189.06 442.247 189.144 442.551 189.312C442.863 189.48 443.095 189.736 443.247 190.08C443.399 190.416 443.475 190.844 443.475 191.364V194.58C443.475 194.74 443.431 194.864 443.343 194.952C443.263 195.04 443.147 195.084 442.995 195.084C442.835 195.084 442.711 195.04 442.623 194.952C442.543 194.864 442.503 194.74 442.503 194.58V191.424C442.503 190.88 442.395 190.484 442.179 190.236C441.971 189.98 441.635 189.852 441.171 189.852C440.635 189.852 440.207 190.02 439.887 190.356C439.575 190.684 439.419 191.124 439.419 191.676V194.58C439.419 194.916 439.255 195.084 438.927 195.084Z" fill="#667085"/>
<path d="M505.116 195.072C504.964 195.08 504.848 195.04 504.768 194.952C504.68 194.864 504.636 194.756 504.636 194.628C504.636 194.532 504.668 194.444 504.732 194.364C504.788 194.284 504.88 194.24 505.008 194.232L505.38 194.208C505.788 194.176 506.1 194.036 506.316 193.788C506.532 193.532 506.64 193.184 506.64 192.744V186.96C506.64 186.792 506.68 186.668 506.76 186.588C506.848 186.5 506.972 186.456 507.132 186.456C507.292 186.456 507.412 186.5 507.492 186.588C507.58 186.668 507.624 186.792 507.624 186.96V192.756C507.624 193.212 507.544 193.608 507.384 193.944C507.224 194.272 506.984 194.528 506.664 194.712C506.352 194.896 505.968 195.004 505.512 195.036L505.116 195.072ZM511.646 195.108C511.174 195.108 510.782 195.024 510.47 194.856C510.166 194.68 509.934 194.42 509.774 194.076C509.622 193.732 509.546 193.304 509.546 192.792V189.576C509.546 189.408 509.586 189.284 509.666 189.204C509.754 189.124 509.874 189.084 510.026 189.084C510.186 189.084 510.306 189.124 510.386 189.204C510.474 189.284 510.518 189.408 510.518 189.576V192.78C510.518 193.292 510.622 193.676 510.83 193.932C511.046 194.18 511.382 194.304 511.838 194.304C512.334 194.304 512.738 194.136 513.05 193.8C513.362 193.464 513.518 193.024 513.518 192.48V189.576C513.518 189.408 513.558 189.284 513.638 189.204C513.726 189.124 513.85 189.084 514.01 189.084C514.162 189.084 514.278 189.124 514.358 189.204C514.446 189.284 514.49 189.408 514.49 189.576V194.58C514.49 194.916 514.334 195.084 514.022 195.084C513.87 195.084 513.75 195.04 513.662 194.952C513.582 194.864 513.542 194.74 513.542 194.58V193.488L513.698 193.656C513.538 194.128 513.274 194.488 512.906 194.736C512.546 194.984 512.126 195.108 511.646 195.108ZM518.085 195.108C517.509 195.108 517.069 194.932 516.765 194.58C516.461 194.228 516.309 193.724 516.309 193.068V186.948C516.309 186.788 516.349 186.668 516.429 186.588C516.509 186.5 516.629 186.456 516.789 186.456C516.941 186.456 517.061 186.5 517.149 186.588C517.237 186.668 517.281 186.788 517.281 186.948V192.996C517.281 193.428 517.365 193.752 517.533 193.968C517.709 194.176 517.965 194.28 518.301 194.28C518.373 194.28 518.437 194.276 518.493 194.268C518.549 194.26 518.605 194.256 518.661 194.256C518.749 194.248 518.809 194.268 518.841 194.316C518.881 194.364 518.901 194.46 518.901 194.604C518.901 194.748 518.869 194.856 518.805 194.928C518.741 195 518.637 195.048 518.493 195.072C518.429 195.08 518.361 195.088 518.289 195.096C518.217 195.104 518.149 195.108 518.085 195.108Z" fill="#667085"/>
<path d="M580.205 195.084C580.077 195.084 579.973 195.056 579.893 195C579.821 194.936 579.777 194.856 579.761 194.76C579.753 194.656 579.777 194.54 579.833 194.412L583.133 186.9C583.205 186.74 583.289 186.628 583.385 186.564C583.489 186.492 583.601 186.456 583.721 186.456C583.841 186.456 583.949 186.492 584.045 186.564C584.149 186.628 584.233 186.74 584.297 186.9L587.609 194.412C587.673 194.54 587.697 194.656 587.681 194.76C587.673 194.864 587.633 194.944 587.561 195C587.489 195.056 587.389 195.084 587.261 195.084C587.117 195.084 587.001 195.048 586.913 194.976C586.825 194.896 586.753 194.784 586.697 194.64L585.809 192.588L586.289 192.84H581.129L581.621 192.588L580.745 194.64C580.673 194.792 580.597 194.904 580.517 194.976C580.437 195.048 580.333 195.084 580.205 195.084ZM583.709 187.692L581.777 192.24L581.489 192.012H585.929L585.665 192.24L583.733 187.692H583.709ZM591.059 195.108C590.587 195.108 590.195 195.024 589.883 194.856C589.579 194.68 589.347 194.42 589.187 194.076C589.035 193.732 588.959 193.304 588.959 192.792V189.576C588.959 189.408 588.999 189.284 589.079 189.204C589.167 189.124 589.287 189.084 589.439 189.084C589.599 189.084 589.719 189.124 589.799 189.204C589.887 189.284 589.931 189.408 589.931 189.576V192.78C589.931 193.292 590.035 193.676 590.243 193.932C590.459 194.18 590.795 194.304 591.251 194.304C591.747 194.304 592.151 194.136 592.463 193.8C592.775 193.464 592.931 193.024 592.931 192.48V189.576C592.931 189.408 592.971 189.284 593.051 189.204C593.139 189.124 593.263 189.084 593.423 189.084C593.575 189.084 593.691 189.124 593.771 189.204C593.859 189.284 593.903 189.408 593.903 189.576V194.58C593.903 194.916 593.747 195.084 593.435 195.084C593.283 195.084 593.163 195.04 593.075 194.952C592.995 194.864 592.955 194.74 592.955 194.58V193.488L593.111 193.656C592.951 194.128 592.687 194.488 592.319 194.736C591.959 194.984 591.539 195.108 591.059 195.108ZM598.302 197.268C597.878 197.268 597.462 197.216 597.054 197.112C596.654 197.016 596.29 196.86 595.962 196.644C595.866 196.588 595.802 196.52 595.77 196.44C595.746 196.36 595.742 196.28 595.758 196.2C595.774 196.128 595.81 196.06 595.866 195.996C595.922 195.94 595.986 195.904 596.058 195.888C596.138 195.872 596.218 195.884 596.298 195.924C596.65 196.14 596.986 196.288 597.306 196.368C597.626 196.448 597.942 196.488 598.254 196.488C598.822 196.488 599.25 196.336 599.538 196.032C599.834 195.728 599.982 195.288 599.982 194.712V193.356H600.102C599.982 193.82 599.726 194.188 599.334 194.46C598.95 194.732 598.498 194.868 597.978 194.868C597.442 194.868 596.978 194.748 596.586 194.508C596.194 194.26 595.89 193.916 595.674 193.476C595.466 193.036 595.362 192.528 595.362 191.952C595.362 191.52 595.422 191.128 595.542 190.776C595.662 190.416 595.834 190.112 596.058 189.864C596.29 189.608 596.566 189.412 596.886 189.276C597.214 189.132 597.578 189.06 597.978 189.06C598.506 189.06 598.962 189.196 599.346 189.468C599.73 189.732 599.978 190.092 600.09 190.548L599.97 190.692V189.576C599.97 189.416 600.01 189.296 600.09 189.216C600.178 189.128 600.298 189.084 600.45 189.084C600.61 189.084 600.73 189.128 600.81 189.216C600.89 189.296 600.93 189.416 600.93 189.576V194.58C600.93 195.468 600.706 196.136 600.258 196.584C599.818 197.04 599.166 197.268 598.302 197.268ZM598.158 194.076C598.534 194.076 598.858 193.992 599.13 193.824C599.402 193.648 599.61 193.4 599.754 193.08C599.906 192.76 599.982 192.384 599.982 191.952C599.982 191.304 599.818 190.792 599.49 190.416C599.162 190.032 598.718 189.84 598.158 189.84C597.79 189.84 597.47 189.928 597.198 190.104C596.926 190.272 596.714 190.516 596.562 190.836C596.418 191.148 596.346 191.52 596.346 191.952C596.346 192.6 596.51 193.116 596.838 193.5C597.166 193.884 597.606 194.076 598.158 194.076Z" fill="#667085"/>
<path d="M665.715 195.108C665.339 195.108 664.971 195.076 664.611 195.012C664.251 194.948 663.915 194.856 663.603 194.736C663.299 194.616 663.023 194.464 662.775 194.28C662.679 194.208 662.611 194.128 662.571 194.04C662.539 193.944 662.531 193.852 662.547 193.764C662.571 193.668 662.611 193.588 662.667 193.524C662.731 193.46 662.807 193.424 662.895 193.416C662.983 193.408 663.079 193.436 663.183 193.5C663.543 193.756 663.927 193.944 664.335 194.064C664.743 194.176 665.203 194.232 665.715 194.232C666.435 194.232 666.967 194.1 667.311 193.836C667.663 193.564 667.839 193.208 667.839 192.768C667.839 192.408 667.711 192.128 667.455 191.928C667.207 191.72 666.787 191.556 666.195 191.436L664.947 191.184C664.195 191.024 663.631 190.764 663.255 190.404C662.887 190.036 662.703 189.548 662.703 188.94C662.703 188.564 662.779 188.224 662.931 187.92C663.083 187.608 663.295 187.344 663.567 187.128C663.839 186.904 664.163 186.732 664.539 186.612C664.915 186.492 665.331 186.432 665.787 186.432C666.291 186.432 666.759 186.504 667.191 186.648C667.631 186.784 668.027 186.992 668.379 187.272C668.467 187.344 668.527 187.428 668.559 187.524C668.591 187.612 668.595 187.7 668.571 187.788C668.547 187.868 668.503 187.936 668.439 187.992C668.383 188.048 668.307 188.08 668.211 188.088C668.123 188.096 668.023 188.064 667.911 187.992C667.591 187.752 667.259 187.58 666.915 187.476C666.571 187.364 666.191 187.308 665.775 187.308C665.351 187.308 664.983 187.372 664.671 187.5C664.367 187.628 664.127 187.816 663.951 188.064C663.783 188.304 663.699 188.584 663.699 188.904C663.699 189.288 663.815 189.592 664.047 189.816C664.287 190.04 664.675 190.204 665.211 190.308L666.459 190.572C667.267 190.74 667.863 190.996 668.247 191.34C668.639 191.676 668.835 192.136 668.835 192.72C668.835 193.072 668.763 193.396 668.619 193.692C668.475 193.988 668.267 194.244 667.995 194.46C667.723 194.668 667.395 194.828 667.011 194.94C666.627 195.052 666.195 195.108 665.715 195.108ZM672.858 195.108C672.242 195.108 671.71 194.988 671.262 194.748C670.822 194.5 670.478 194.152 670.23 193.704C669.99 193.256 669.87 192.72 669.87 192.096C669.87 191.488 669.99 190.96 670.23 190.512C670.47 190.056 670.798 189.7 671.214 189.444C671.638 189.188 672.126 189.06 672.678 189.06C673.07 189.06 673.422 189.128 673.734 189.264C674.046 189.392 674.31 189.58 674.526 189.828C674.75 190.076 674.918 190.376 675.03 190.728C675.15 191.08 675.21 191.476 675.21 191.916C675.21 192.044 675.174 192.14 675.102 192.204C675.03 192.26 674.926 192.288 674.79 192.288H670.614V191.652H674.562L674.37 191.808C674.37 191.376 674.306 191.012 674.178 190.716C674.05 190.412 673.862 190.18 673.614 190.02C673.374 189.86 673.07 189.78 672.702 189.78C672.294 189.78 671.946 189.876 671.658 190.068C671.378 190.252 671.166 190.512 671.022 190.848C670.878 191.176 670.806 191.56 670.806 192V192.072C670.806 192.808 670.982 193.368 671.334 193.752C671.694 194.136 672.202 194.328 672.858 194.328C673.13 194.328 673.398 194.292 673.662 194.22C673.934 194.148 674.198 194.028 674.454 193.86C674.566 193.788 674.666 193.756 674.754 193.764C674.85 193.764 674.926 193.792 674.982 193.848C675.038 193.896 675.074 193.96 675.09 194.04C675.114 194.112 675.106 194.192 675.066 194.28C675.034 194.368 674.966 194.444 674.862 194.508C674.598 194.7 674.286 194.848 673.926 194.952C673.566 195.056 673.21 195.108 672.858 195.108ZM677.097 197.244C676.937 197.244 676.817 197.2 676.737 197.112C676.657 197.032 676.617 196.912 676.617 196.752V189.576C676.617 189.416 676.657 189.296 676.737 189.216C676.817 189.128 676.933 189.084 677.085 189.084C677.245 189.084 677.365 189.128 677.445 189.216C677.533 189.296 677.577 189.416 677.577 189.576V190.716L677.445 190.548C677.573 190.092 677.825 189.732 678.201 189.468C678.585 189.196 679.041 189.06 679.569 189.06C680.089 189.06 680.541 189.184 680.925 189.432C681.317 189.672 681.617 190.02 681.825 190.476C682.041 190.924 682.149 191.46 682.149 192.084C682.149 192.7 682.041 193.236 681.825 193.692C681.617 194.14 681.321 194.488 680.937 194.736C680.553 194.984 680.097 195.108 679.569 195.108C679.041 195.108 678.589 194.976 678.213 194.712C677.837 194.44 677.581 194.08 677.445 193.632H677.589V196.752C677.589 196.912 677.545 197.032 677.457 197.112C677.369 197.2 677.249 197.244 677.097 197.244ZM679.365 194.328C679.733 194.328 680.049 194.24 680.313 194.064C680.585 193.888 680.793 193.632 680.937 193.296C681.089 192.96 681.165 192.556 681.165 192.084C681.165 191.356 681.001 190.8 680.673 190.416C680.353 190.032 679.917 189.84 679.365 189.84C679.005 189.84 678.689 189.928 678.417 190.104C678.145 190.272 677.933 190.524 677.781 190.86C677.637 191.188 677.565 191.596 677.565 192.084C677.565 192.804 677.729 193.36 678.057 193.752C678.385 194.136 678.821 194.328 679.365 194.328Z" fill="#667085"/>
<path d="M747.167 195.108C746.383 195.108 745.699 194.932 745.115 194.58C744.539 194.22 744.091 193.716 743.771 193.068C743.459 192.42 743.303 191.652 743.303 190.764C743.303 190.092 743.391 189.492 743.567 188.964C743.751 188.428 744.011 187.976 744.347 187.608C744.683 187.232 745.087 186.944 745.559 186.744C746.039 186.536 746.575 186.432 747.167 186.432C747.967 186.432 748.655 186.608 749.231 186.96C749.815 187.312 750.263 187.812 750.575 188.46C750.895 189.1 751.055 189.864 751.055 190.752C751.055 191.424 750.963 192.028 750.779 192.564C750.595 193.1 750.335 193.556 749.999 193.932C749.663 194.308 749.255 194.6 748.775 194.808C748.303 195.008 747.767 195.108 747.167 195.108ZM747.167 194.232C747.775 194.232 748.287 194.096 748.703 193.824C749.127 193.552 749.451 193.156 749.675 192.636C749.899 192.116 750.011 191.492 750.011 190.764C750.011 189.668 749.763 188.82 749.267 188.22C748.779 187.612 748.079 187.308 747.167 187.308C746.575 187.308 746.067 187.444 745.643 187.716C745.227 187.988 744.907 188.384 744.683 188.904C744.459 189.416 744.347 190.036 744.347 190.764C744.347 191.852 744.595 192.704 745.091 193.32C745.587 193.928 746.279 194.232 747.167 194.232ZM755.154 195.108C754.57 195.108 754.066 194.98 753.642 194.724C753.218 194.468 752.89 194.112 752.658 193.656C752.434 193.192 752.322 192.656 752.322 192.048C752.322 191.584 752.386 191.168 752.514 190.8C752.642 190.432 752.83 190.12 753.078 189.864C753.326 189.6 753.622 189.4 753.966 189.264C754.318 189.128 754.714 189.06 755.154 189.06C755.442 189.06 755.742 189.104 756.054 189.192C756.366 189.28 756.65 189.432 756.906 189.648C756.986 189.704 757.038 189.772 757.062 189.852C757.086 189.932 757.086 190.012 757.062 190.092C757.038 190.164 756.998 190.228 756.942 190.284C756.886 190.332 756.814 190.36 756.726 190.368C756.646 190.376 756.562 190.348 756.474 190.284C756.266 190.124 756.054 190.012 755.838 189.948C755.622 189.884 755.414 189.852 755.214 189.852C754.902 189.852 754.63 189.904 754.398 190.008C754.166 190.104 753.97 190.244 753.81 190.428C753.65 190.612 753.526 190.84 753.438 191.112C753.358 191.384 753.318 191.7 753.318 192.06C753.318 192.756 753.482 193.308 753.81 193.716C754.138 194.116 754.606 194.316 755.214 194.316C755.414 194.316 755.618 194.284 755.826 194.22C756.042 194.156 756.258 194.044 756.474 193.884C756.562 193.82 756.646 193.792 756.726 193.8C756.806 193.808 756.874 193.84 756.93 193.896C756.986 193.944 757.022 194.008 757.038 194.088C757.062 194.168 757.062 194.248 757.038 194.328C757.014 194.4 756.962 194.464 756.882 194.52C756.626 194.728 756.346 194.88 756.042 194.976C755.738 195.064 755.442 195.108 755.154 195.108ZM760.577 195.108C760.121 195.108 759.737 195.028 759.425 194.868C759.121 194.7 758.893 194.46 758.741 194.148C758.589 193.828 758.513 193.44 758.513 192.984V189.924H757.709C757.573 189.924 757.469 189.892 757.397 189.828C757.325 189.756 757.289 189.66 757.289 189.54C757.289 189.42 757.325 189.328 757.397 189.264C757.469 189.2 757.573 189.168 757.709 189.168H758.513V187.788C758.513 187.628 758.557 187.508 758.645 187.428C758.733 187.34 758.853 187.296 759.005 187.296C759.157 187.296 759.273 187.34 759.353 187.428C759.441 187.508 759.485 187.628 759.485 187.788V189.168H760.997C761.133 189.168 761.237 189.2 761.309 189.264C761.381 189.328 761.417 189.42 761.417 189.54C761.417 189.66 761.381 189.756 761.309 189.828C761.237 189.892 761.133 189.924 760.997 189.924H759.485V192.888C759.485 193.344 759.581 193.692 759.773 193.932C759.965 194.164 760.277 194.28 760.709 194.28C760.861 194.28 760.989 194.264 761.093 194.232C761.205 194.2 761.297 194.184 761.369 194.184C761.441 194.176 761.501 194.2 761.549 194.256C761.597 194.312 761.621 194.408 761.621 194.544C761.621 194.64 761.601 194.728 761.561 194.808C761.529 194.888 761.469 194.944 761.381 194.976C761.285 195.008 761.157 195.036 760.997 195.06C760.845 195.092 760.705 195.108 760.577 195.108Z" fill="#667085"/>
<path d="M822.963 195.084C822.811 195.084 822.695 195.044 822.615 194.964C822.535 194.876 822.495 194.752 822.495 194.592V186.96C822.495 186.8 822.535 186.676 822.615 186.588C822.695 186.5 822.799 186.456 822.927 186.456C823.055 186.456 823.147 186.48 823.203 186.528C823.267 186.568 823.339 186.644 823.419 186.756L828.651 193.728H828.363V186.936C828.363 186.784 828.403 186.668 828.483 186.588C828.563 186.5 828.679 186.456 828.831 186.456C828.975 186.456 829.083 186.5 829.155 186.588C829.235 186.668 829.275 186.784 829.275 186.936V194.604C829.275 194.756 829.239 194.876 829.167 194.964C829.103 195.044 829.007 195.084 828.879 195.084C828.759 195.084 828.663 195.06 828.591 195.012C828.519 194.964 828.443 194.888 828.363 194.784L823.143 187.812H823.419V194.592C823.419 194.752 823.379 194.876 823.299 194.964C823.219 195.044 823.107 195.084 822.963 195.084ZM833.669 195.108C833.101 195.108 832.609 194.984 832.193 194.736C831.777 194.488 831.453 194.14 831.221 193.692C830.997 193.236 830.885 192.7 830.885 192.084C830.885 191.62 830.949 191.204 831.077 190.836C831.205 190.46 831.393 190.14 831.641 189.876C831.889 189.612 832.181 189.412 832.517 189.276C832.861 189.132 833.245 189.06 833.669 189.06C834.237 189.06 834.729 189.184 835.145 189.432C835.561 189.68 835.881 190.032 836.105 190.488C836.337 190.936 836.453 191.468 836.453 192.084C836.453 192.548 836.389 192.964 836.261 193.332C836.133 193.7 835.945 194.02 835.697 194.292C835.449 194.556 835.153 194.76 834.809 194.904C834.473 195.04 834.093 195.108 833.669 195.108ZM833.669 194.328C834.029 194.328 834.345 194.24 834.617 194.064C834.889 193.888 835.097 193.632 835.241 193.296C835.393 192.96 835.469 192.556 835.469 192.084C835.469 191.356 835.305 190.8 834.977 190.416C834.657 190.032 834.221 189.84 833.669 189.84C833.301 189.84 832.981 189.928 832.709 190.104C832.445 190.272 832.237 190.524 832.085 190.86C831.941 191.188 831.869 191.596 831.869 192.084C831.869 192.804 832.033 193.36 832.361 193.752C832.689 194.136 833.125 194.328 833.669 194.328ZM840.003 195.084C839.867 195.084 839.747 195.048 839.643 194.976C839.539 194.896 839.451 194.776 839.379 194.616L837.303 189.768C837.247 189.648 837.227 189.536 837.243 189.432C837.259 189.328 837.307 189.244 837.387 189.18C837.467 189.116 837.579 189.084 837.723 189.084C837.851 189.084 837.951 189.112 838.023 189.168C838.095 189.224 838.159 189.324 838.215 189.468L840.183 194.28H839.859L841.863 189.468C841.919 189.324 841.983 189.224 842.055 189.168C842.127 189.112 842.231 189.084 842.367 189.084C842.495 189.084 842.591 189.116 842.655 189.18C842.727 189.244 842.767 189.328 842.775 189.432C842.791 189.528 842.775 189.636 842.727 189.756L840.627 194.616C840.571 194.776 840.487 194.896 840.375 194.976C840.271 195.048 840.147 195.084 840.003 195.084Z" fill="#667085"/>
<path d="M904.66 195C904.484 195 904.348 194.956 904.252 194.868C904.164 194.772 904.12 194.636 904.12 194.46V187.08C904.12 186.904 904.164 186.772 904.252 186.684C904.348 186.588 904.484 186.54 904.66 186.54H906.976C908.344 186.54 909.4 186.9 910.144 187.62C910.888 188.34 911.26 189.388 911.26 190.764C911.26 191.452 911.164 192.06 910.972 192.588C910.788 193.108 910.512 193.548 910.144 193.908C909.776 194.268 909.328 194.54 908.8 194.724C908.272 194.908 907.664 195 906.976 195H904.66ZM905.104 194.16H906.904C907.464 194.16 907.948 194.088 908.356 193.944C908.772 193.8 909.116 193.588 909.388 193.308C909.668 193.028 909.876 192.676 910.012 192.252C910.148 191.82 910.216 191.324 910.216 190.764C910.216 189.636 909.94 188.792 909.388 188.232C908.836 187.664 908.008 187.38 906.904 187.38H905.104V194.16ZM915.522 195.108C914.906 195.108 914.374 194.988 913.926 194.748C913.486 194.5 913.142 194.152 912.894 193.704C912.654 193.256 912.534 192.72 912.534 192.096C912.534 191.488 912.654 190.96 912.894 190.512C913.134 190.056 913.462 189.7 913.878 189.444C914.302 189.188 914.79 189.06 915.342 189.06C915.734 189.06 916.086 189.128 916.398 189.264C916.71 189.392 916.974 189.58 917.19 189.828C917.414 190.076 917.582 190.376 917.694 190.728C917.814 191.08 917.874 191.476 917.874 191.916C917.874 192.044 917.838 192.14 917.766 192.204C917.694 192.26 917.59 192.288 917.454 192.288H913.278V191.652H917.226L917.034 191.808C917.034 191.376 916.97 191.012 916.842 190.716C916.714 190.412 916.526 190.18 916.278 190.02C916.038 189.86 915.734 189.78 915.366 189.78C914.958 189.78 914.61 189.876 914.322 190.068C914.042 190.252 913.83 190.512 913.686 190.848C913.542 191.176 913.47 191.56 913.47 192V192.072C913.47 192.808 913.646 193.368 913.998 193.752C914.358 194.136 914.866 194.328 915.522 194.328C915.794 194.328 916.062 194.292 916.326 194.22C916.598 194.148 916.862 194.028 917.118 193.86C917.23 193.788 917.33 193.756 917.418 193.764C917.514 193.764 917.59 193.792 917.646 193.848C917.702 193.896 917.738 193.96 917.754 194.04C917.778 194.112 917.77 194.192 917.73 194.28C917.698 194.368 917.63 194.444 917.526 194.508C917.262 194.7 916.95 194.848 916.59 194.952C916.23 195.056 915.874 195.108 915.522 195.108ZM921.753 195.108C921.169 195.108 920.665 194.98 920.241 194.724C919.817 194.468 919.489 194.112 919.257 193.656C919.033 193.192 918.921 192.656 918.921 192.048C918.921 191.584 918.985 191.168 919.113 190.8C919.241 190.432 919.429 190.12 919.677 189.864C919.925 189.6 920.221 189.4 920.565 189.264C920.917 189.128 921.313 189.06 921.753 189.06C922.041 189.06 922.341 189.104 922.653 189.192C922.965 189.28 923.249 189.432 923.505 189.648C923.585 189.704 923.637 189.772 923.661 189.852C923.685 189.932 923.685 190.012 923.661 190.092C923.637 190.164 923.597 190.228 923.541 190.284C923.485 190.332 923.413 190.36 923.325 190.368C923.245 190.376 923.161 190.348 923.073 190.284C922.865 190.124 922.653 190.012 922.437 189.948C922.221 189.884 922.013 189.852 921.813 189.852C921.501 189.852 921.229 189.904 920.997 190.008C920.765 190.104 920.569 190.244 920.409 190.428C920.249 190.612 920.125 190.84 920.037 191.112C919.957 191.384 919.917 191.7 919.917 192.06C919.917 192.756 920.081 193.308 920.409 193.716C920.737 194.116 921.205 194.316 921.813 194.316C922.013 194.316 922.217 194.284 922.425 194.22C922.641 194.156 922.857 194.044 923.073 193.884C923.161 193.82 923.245 193.792 923.325 193.8C923.405 193.808 923.473 193.84 923.529 193.896C923.585 193.944 923.621 194.008 923.637 194.088C923.661 194.168 923.661 194.248 923.637 194.328C923.613 194.4 923.561 194.464 923.481 194.52C923.225 194.728 922.945 194.88 922.641 194.976C922.337 195.064 922.041 195.108 921.753 195.108Z" fill="#667085"/>
<g style="mix-blend-mode:multiply" opacity="0.1">
<path d="M920.943 35.2551C934.471 35.2551 934.471 22.9167 948 22.9167V176H1V101.795C15.6559 101.795 14.5286 106.333 28.0571 106.333C41.5857 106.333 41.5858 93.4441 55.1143 93.4441C68.6429 93.4441 66.3881 97.41 82.1714 97.41C97.9547 97.41 93.4453 104.835 109.229 104.835C125.012 104.835 121.63 102.015 136.286 102.015C150.942 102.015 148.123 88.5748 163.343 88.5748C178.562 88.5748 174.617 92.9594 190.4 92.9594C206.183 92.9594 203.365 98.9964 217.457 98.9964C231.549 98.9964 229.295 78.9464 244.514 78.9464C259.734 78.9464 258.043 85.8868 271.571 85.8868C285.1 85.8868 282.845 76.1703 298.629 76.1703C314.412 76.1703 311.03 82.3836 325.686 82.3836C340.342 82.3836 338.087 56.9796 352.743 56.9796C367.399 56.9796 364.58 64.0522 379.8 64.0522C395.02 64.0522 391.074 68.7231 406.857 68.7231C422.641 68.7231 418.695 56.605 433.914 56.605C449.134 56.605 445.188 62.5539 460.971 62.5539C476.755 62.5539 473.936 52.7493 488.029 52.7493C502.121 52.7493 500.43 36.3568 515.086 36.3568C529.742 36.3568 527.487 63.7878 542.143 63.7878C556.799 63.7878 555.108 44.5751 569.2 44.5751C583.292 44.5751 580.474 52.9916 596.257 52.9916C612.04 52.9916 608.658 60.5489 623.314 60.5489C637.97 60.5489 636.279 48.0342 650.371 48.0342C664.464 48.0342 663.336 59.932 677.429 59.932C691.521 59.932 689.83 54.6441 704.486 54.6441C719.142 54.6441 716.887 43.7378 731.543 43.7378C746.199 43.7378 743.944 48.1003 758.6 48.1003C773.256 48.1003 772.129 32.1705 785.657 32.1705C799.186 32.1705 796.931 54.0051 812.714 54.0051C828.498 54.0051 824.552 39.177 839.771 39.177C854.991 39.177 852.736 45.2801 866.829 45.2801C880.921 45.2801 879.793 30.0774 893.886 30.0774C907.978 30.0774 907.414 35.2551 920.943 35.2551Z" fill="url(#paint0_linear_74_973)"/>
</g>
<path d="M948 22.9167C934.471 22.9167 934.471 35.2551 920.943 35.2551C907.414 35.2551 907.978 30.0774 893.886 30.0774C879.793 30.0774 880.921 45.2801 866.829 45.2801C852.736 45.2801 854.991 39.177 839.771 39.177C824.552 39.177 828.498 54.0052 812.714 54.0052C796.931 54.0052 799.186 32.1705 785.657 32.1705C772.129 32.1705 773.256 48.1003 758.6 48.1003C743.944 48.1003 746.199 43.7378 731.543 43.7378C716.887 43.7378 719.142 54.6441 704.486 54.6441C689.83 54.6441 691.521 59.932 677.429 59.932C663.336 59.932 664.464 48.0342 650.371 48.0342C636.279 48.0342 637.97 60.5489 623.314 60.5489C608.658 60.5489 612.04 52.9916 596.257 52.9916C580.474 52.9916 583.292 44.5751 569.2 44.5751C555.108 44.5751 556.799 63.7878 542.143 63.7878C527.487 63.7878 529.742 36.3568 515.086 36.3568C500.43 36.3568 502.121 52.7493 488.029 52.7493C473.936 52.7493 476.755 62.5539 460.971 62.5539C445.188 62.5539 449.134 56.605 433.914 56.605C418.695 56.605 422.64 68.7231 406.857 68.7231C391.074 68.7231 395.02 64.0522 379.8 64.0522C364.58 64.0522 367.399 56.9796 352.743 56.9796C338.087 56.9796 340.342 82.3836 325.686 82.3836C311.03 82.3836 314.412 76.1703 298.629 76.1703C282.845 76.1703 285.1 85.8868 271.571 85.8868C258.043 85.8868 259.734 78.9464 244.514 78.9464C229.295 78.9464 231.549 98.9964 217.457 98.9964C203.365 98.9964 206.183 92.9594 190.4 92.9594C174.617 92.9594 178.562 88.5748 163.343 88.5748C148.123 88.5748 150.942 102.015 136.286 102.015C121.63 102.015 125.012 104.835 109.229 104.835C93.4452 104.835 97.9547 97.41 82.1714 97.41C66.3881 97.41 68.6429 93.4441 55.1143 93.4441C41.5857 93.4441 41.5857 106.333 28.0571 106.333C14.5286 106.333 15.6559 101.795 0.999985 101.795" stroke="#7F56D9" stroke-width="2" stroke-linecap="round" stroke-linejoin="round"/>
<path d="M948 86.1667C934.471 86.1667 934.471 91.6533 920.943 91.6533C907.414 91.6533 907.978 92.3789 893.886 92.3789C879.793 92.3789 880.921 96.1112 866.829 96.1112C852.736 96.1112 854.991 93.3973 839.771 93.3973C824.552 93.3973 828.498 99.991 812.714 99.991C796.931 99.991 799.186 94.8237 785.657 94.8237C772.129 94.8237 773.256 97.3653 758.6 97.3653C743.944 97.3653 746.199 95.4254 731.543 95.4254C716.887 95.4254 719.142 100.275 704.486 100.275C689.83 100.275 691.521 102.627 677.429 102.627C663.336 102.627 664.464 97.3359 650.371 97.3359C636.279 97.3359 637.97 90.7887 623.314 90.7887C608.658 90.7887 612.04 99.5403 596.257 99.5403C580.474 99.5403 583.292 95.7977 569.2 95.7977C555.108 95.7977 552.754 97.8169 542.143 98.285C531.59 98.7507 529.742 98.1993 515.086 98.1993C500.43 98.1993 502.121 99.4325 488.029 99.4325C473.936 99.4325 476.755 103.792 460.971 103.792C445.188 103.792 449.134 101.147 433.914 101.147C418.695 101.147 422.64 106.536 406.857 106.536C391.074 106.536 395.02 104.459 379.8 104.459C364.58 104.459 367.399 101.314 352.743 101.314C338.087 101.314 340.342 106.554 325.686 106.554C311.03 106.554 314.412 109.847 298.629 109.847C282.845 109.847 281.632 110.864 271.571 114.168C259.852 118.017 259.734 129.25 244.514 129.25C229.295 129.25 228.476 122.343 217.457 119.998C207.122 117.798 206.183 117.313 190.4 117.313C174.617 117.313 178.562 115.363 163.343 115.363C148.123 115.363 150.942 121.34 136.286 121.34C121.63 121.34 125.012 122.594 109.229 122.594C93.4452 122.594 97.9547 119.292 82.1714 119.292C66.3881 119.292 68.6429 117.529 55.1143 117.529C41.5857 117.529 41.5857 123.26 28.0571 123.26C14.5286 123.26 15.6559 121.242 0.999985 121.242" stroke="#B692F6" stroke-width="2" stroke-linecap="round" stroke-linejoin="round"/>
<defs>
<linearGradient id="paint0_linear_74_973" x1="474.5" y1="22.9167" x2="474.5" y2="169.185" gradientUnits="userSpaceOnUse">
<stop stop-color="#7F56D9"/>
<stop offset="1" stop-color="#7F56D9" stop-opacity="0"/>
</linearGradient>
</defs>
</svg>
