<svg width="18" height="18" viewBox="0 0 18 18" fill="none" xmlns="http://www.w3.org/2000/svg">
<path d="M12 15.75H12.15C13.4101 15.75 14.0402 15.75 14.5215 15.5048C14.9448 15.289 15.289 14.9448 15.5048 14.5215C15.75 14.0402 15.75 13.4101 15.75 12.15V5.85C15.75 4.58988 15.75 3.95982 15.5048 3.47852C15.289 3.05516 14.9448 2.71095 14.5215 2.49524C14.0402 2.25 13.4101 2.25 12.15 2.25H5.85C4.58988 2.25 3.95982 2.25 3.47852 2.49524C3.05516 2.71095 2.71095 3.05516 2.49524 3.47852C2.25 3.95982 2.25 4.58988 2.25 5.85V6M8.625 9.375L12.75 5.25M12.75 5.25H9M12.75 5.25V9M4.65 15.75H6.6C7.44008 15.75 7.86012 15.75 8.18099 15.5865C8.46323 15.4427 8.6927 15.2132 8.83651 14.931C9 14.6101 9 14.1901 9 13.35V11.4C9 10.5599 9 10.1399 8.83651 9.81901C8.6927 9.53677 8.46323 9.3073 8.18099 9.16349C7.86012 9 7.44008 9 6.6 9H4.65C3.80992 9 3.38988 9 3.06901 9.16349C2.78677 9.3073 2.5573 9.53677 2.41349 9.81901C2.25 10.1399 2.25 10.5599 2.25 11.4V13.35C2.25 14.1901 2.25 14.6101 2.41349 14.931C2.5573 15.2132 2.78677 15.4427 3.06901 15.5865C3.38988 15.75 3.80992 15.75 4.65 15.75Z" stroke="#667085" stroke-width="1.5" stroke-linecap="round" stroke-linejoin="round"/>
</svg>
