<svg width="11" height="11" viewBox="0 0 11 11" fill="none" xmlns="http://www.w3.org/2000/svg">
<g clip-path="url(#clip0_433_21571)">
<path d="M5.00763 0.845427C5.0973 0.629837 5.4027 0.629837 5.49237 0.845426L6.57707 3.45335C6.61487 3.54424 6.70034 3.60634 6.79846 3.61421L9.61394 3.83992C9.84669 3.85858 9.94106 4.14904 9.76373 4.30094L7.61864 6.13844C7.54388 6.20248 7.51123 6.30296 7.53407 6.39871L8.18943 9.14613C8.24361 9.37325 7.99653 9.55277 7.79727 9.43106L5.38683 7.95877C5.30282 7.90746 5.19718 7.90746 5.11317 7.95877L2.70273 9.43106C2.50347 9.55277 2.25639 9.37325 2.31057 9.14613L2.96593 6.39871C2.98877 6.30296 2.95612 6.20248 2.88136 6.13844L0.736267 4.30094C0.558938 4.14904 0.653314 3.85858 0.88606 3.83992L3.70154 3.61421C3.79966 3.60634 3.88513 3.54424 3.92293 3.45335L5.00763 0.845427Z" fill="#F2F4F7"/>
<g clip-path="url(#clip1_433_21571)">
<path d="M5.00763 0.845427C5.0973 0.629837 5.4027 0.629837 5.49237 0.845426L6.57707 3.45335C6.61487 3.54424 6.70034 3.60634 6.79846 3.61421L9.61394 3.83992C9.84669 3.85858 9.94106 4.14904 9.76373 4.30094L7.61864 6.13844C7.54388 6.20248 7.51123 6.30296 7.53407 6.39871L8.18943 9.14613C8.24361 9.37325 7.99653 9.55277 7.79727 9.43106L5.38683 7.95877C5.30282 7.90746 5.19718 7.90746 5.11317 7.95877L2.70273 9.43106C2.50347 9.55277 2.25639 9.37325 2.31057 9.14613L2.96593 6.39871C2.98877 6.30296 2.95612 6.20248 2.88136 6.13844L0.736267 4.30094C0.558938 4.14904 0.653314 3.85858 0.88606 3.83992L3.70154 3.61421C3.79966 3.60634 3.88513 3.54424 3.92293 3.45335L5.00763 0.845427Z" fill="#F79009"/>
</g>
</g>
<defs>
<clipPath id="clip0_433_21571">
<rect width="10.5" height="10.5" fill="white"/>
</clipPath>
<clipPath id="clip1_433_21571">
<rect width="10.5" height="10.5" fill="white"/>
</clipPath>
</defs>
</svg>
