<svg width="15" height="19" viewBox="0 0 15 19" fill="none" xmlns="http://www.w3.org/2000/svg">
<g clip-path="url(#clip0_99_57136)">
<path d="M6.86761 3.45884C6.99058 3.16318 7.40942 3.16318 7.5324 3.45884L9.01998 7.03543C9.07182 7.16007 9.18904 7.24524 9.32361 7.25602L13.1848 7.56558C13.504 7.59117 13.6335 7.98951 13.3903 8.19783L10.4484 10.7178C10.3459 10.8057 10.3011 10.9435 10.3324 11.0748L11.2312 14.8427C11.3055 15.1542 10.9667 15.4003 10.6934 15.2334L7.38765 13.2143C7.27245 13.1439 7.12755 13.1439 7.01235 13.2143L3.7066 15.2334C3.43333 15.4003 3.09448 15.1541 3.16878 14.8427L4.06756 11.0748C4.09888 10.9435 4.05411 10.8057 3.95158 10.7178L1.00974 8.19783C0.766543 7.98951 0.895973 7.59117 1.21517 7.56558L5.07639 7.25602C5.21096 7.24524 5.32818 7.16007 5.38002 7.03543L6.86761 3.45884Z" fill="#F2F4F7"/>
<g clip-path="url(#clip1_99_57136)">
<path d="M6.86761 3.45884C6.99058 3.16318 7.40942 3.16318 7.5324 3.45884L9.01998 7.03543C9.07182 7.16007 9.18904 7.24524 9.32361 7.25602L13.1848 7.56558C13.504 7.59117 13.6335 7.98951 13.3903 8.19783L10.4484 10.7178C10.3459 10.8057 10.3011 10.9435 10.3324 11.0748L11.2312 14.8427C11.3055 15.1542 10.9667 15.4003 10.6934 15.2334L7.38765 13.2143C7.27245 13.1439 7.12755 13.1439 7.01235 13.2143L3.7066 15.2334C3.43333 15.4003 3.09448 15.1541 3.16878 14.8427L4.06756 11.0748C4.09888 10.9435 4.05411 10.8057 3.95158 10.7178L1.00974 8.19783C0.766543 7.98951 0.895973 7.59117 1.21517 7.56558L5.07639 7.25602C5.21096 7.24524 5.32818 7.16007 5.38002 7.03543L6.86761 3.45884Z" fill="#FDB022"/>
</g>
</g>
<defs>
<clipPath id="clip0_99_57136">
<rect width="14.4" height="14.4" fill="white" transform="translate(0 2.2998)"/>
</clipPath>
<clipPath id="clip1_99_57136">
<rect width="14.4" height="14.4" fill="white" transform="translate(0 2.2998)"/>
</clipPath>
</defs>
</svg>
